# xmcd
#
# Track frame offsets: 
#        150
#        17950
#        36689
#        61746
#        80877
#        102440
#        124408
#        151508
#        172666
#        190610
#
# Disc length: 2854 seconds
#
# Revision: 0
# Processed by: cddbd v1.5PL3 Copyright (c) Steve Scherf et al.
# Submitted via: ExactAudioCopy v0.95a5
#
DISCID=7c0b240a
DTITLE=Various Artist - Tuyet Pham-MyTam*Nguyen Phi Hung
DYEAR=2003
DGENRE=Pop
TTITLE0=Hon Nhien-Nguyen Phi Hung
TTITLE1=Mot Ngay Binh Yen-My Tam
TTITLE2=Hat Ru Mot Tinh Yeu-Nguyen Phi Hung
TTITLE3=Chut Tinh Mai Sau-My Tam
TTITLE4=Dau Yeu-Nguyen Phi Hung
TTITLE5=Roi Se Den-My Tam
TTITLE6=Chia Tay-Nguyen Phi Hung
TTITLE7=Tam Biet Chim En-My Tam
TTITLE8=Uoc Mo-Nguyen Phi Hung
TTITLE9=Tinh Nhu Ngon Nen-My Tam
EXTD=
EXTT0=
EXTT1=
EXTT2=
EXTT3=
EXTT4=
EXTT5=
EXTT6=
EXTT7=
EXTT8=
EXTT9=
PLAYORDER=
